<svg width="226" height="42" viewBox="0 0 226 42" fill="none" xmlns="http://www.w3.org/2000/svg">
<path d="M32.5571 31.605L27.4222 26.4701C28.9784 24.4329 29.8319 21.9618 29.8323 19.3543C29.8323 16.212 28.6084 13.2575 26.3861 11.0356C24.1642 8.81368 21.2101 7.58984 18.0674 7.58984C14.9251 7.58984 11.9707 8.81368 9.74875 11.0356C5.16188 15.6229 5.16188 23.0865 9.74875 27.673C11.9707 29.8953 14.9251 31.1191 18.0674 31.1191C20.6749 31.1188 23.146 30.2653 25.1833 28.709L30.3182 33.844C30.627 34.1532 31.0325 34.3078 31.4376 34.3078C31.8427 34.3078 32.2482 34.1532 32.5571 33.844C33.1756 33.2259 33.1756 32.2231 32.5571 31.605ZM11.9877 25.434C8.63547 22.0818 8.63585 16.6271 11.9877 13.2745C13.6116 11.651 15.7709 10.7565 18.0674 10.7565C20.3643 10.7565 22.5233 11.651 24.1472 13.2745C25.7711 14.8985 26.6656 17.0578 26.6656 19.3543C26.6656 21.6512 25.7711 23.8101 24.1472 25.434C22.5233 27.058 20.3643 27.9525 18.0674 27.9525C15.7709 27.9525 13.6116 27.058 11.9877 25.434Z" fill="#322D2D"/>
<path d="M50.6641 20.948C50.6641 9.55131 59.9029 0.3125 71.2995 0.3125H204.898C216.294 0.3125 225.533 9.55131 225.533 20.948C225.533 32.3446 216.294 41.5834 204.898 41.5834H71.2995C59.9028 41.5834 50.6641 32.3446 50.6641 20.948Z" fill="url(#paint0_linear_625_1435)"/>
<path d="M85 15.0895H81.0135V26.4482H79.4662V15.0895H75.4797V13.706H85V15.0895ZM89.9268 18.2568H89.2714C87.5239 18.2568 86.3043 18.8575 86.3043 21.1511V26.4482H84.8117V16.7277H86.2861V18.4024C86.9232 17.1646 88.2157 16.7277 89.235 16.7277H89.9268V18.2568ZM97.9539 16.7277H99.5194L95.4055 28.0137C94.9868 29.1605 94.4589 29.9433 93.0573 29.9433H91.3826V28.6872H92.6386C93.6944 28.6872 93.8582 28.1229 94.3497 26.5939L90.7455 16.7277H92.3838L95.1689 24.7918L97.9539 16.7277ZM111.76 22.9714H106.681L105.571 26.4482H103.987L108.192 13.706H110.285L114.508 26.4482H112.87L111.76 22.9714ZM111.341 21.6244L109.211 14.962L107.1 21.6244H111.341ZM117.555 26.4482H116.063V12.9779H117.555V26.4482ZM121.172 21.6244C121.172 24.2821 122.465 25.3196 124.085 25.3196C125.523 25.3196 126.542 24.5005 126.688 23.026H128.199C127.925 25.3743 126.233 26.5757 123.975 26.5757C121.391 26.5757 119.643 24.9192 119.643 21.6244C119.643 18.3114 121.591 16.6003 124.121 16.6003C126.342 16.6003 127.907 17.8017 128.162 20.0771H126.651C126.451 18.5117 125.45 17.8563 124.121 17.8563C122.465 17.8563 121.172 18.9303 121.172 21.6244ZM136.437 22.662V21.5516C136.437 21.5516 134.325 21.8246 133.251 21.9885C132.214 22.1341 131.376 22.4799 131.376 23.6267C131.376 24.5915 132.032 25.3196 133.36 25.3196C135.199 25.3196 136.437 24.2639 136.437 22.662ZM132.432 20.8963C133.36 20.7142 136.437 20.3502 136.437 20.3502V19.8223C136.437 18.4752 135.854 17.8381 134.143 17.8381C132.305 17.8381 131.795 18.6755 131.722 19.6585H130.229C130.229 18.4024 130.976 16.6003 134.143 16.6003C137.474 16.6003 137.929 18.3296 137.929 19.8769V24.8828C137.929 25.3378 137.948 26.066 138.057 26.4482H136.546C136.546 26.4482 136.51 25.9203 136.51 25.1376C136.036 25.7565 134.999 26.5757 133.015 26.5757C131.14 26.5757 129.829 25.4835 129.829 23.6632C129.829 21.6426 131.449 21.0965 132.432 20.8963ZM150.682 16.6003C152.812 16.6003 153.941 17.9109 153.941 19.8041V26.4482H152.448V20.241C152.448 18.6937 151.775 17.8927 150.428 17.8927C148.971 17.8927 147.934 18.9121 147.934 20.8599V26.4482H146.441V20.241C146.441 18.7483 145.84 17.8927 144.457 17.8927C142.946 17.8927 141.945 18.9303 141.945 20.9691V26.4482H140.452V16.7277H141.927V18.002C142.473 17.1282 143.492 16.6003 144.785 16.6003C146.186 16.6003 147.187 17.3102 147.57 18.3114C148.261 17.11 149.426 16.6003 150.682 16.6003ZM157.926 14.7982H156.433V12.9779H157.926V14.7982ZM157.926 26.4482H156.433V16.7277H157.926V26.4482Z" fill="black"/>
<path d="M189.262 20.4426C188.982 20.4426 188.756 20.669 188.756 20.9482C188.756 21.2275 188.982 21.4539 189.262 21.4539L189.262 20.4426ZM201.619 21.3058C201.817 21.1083 201.817 20.7882 201.619 20.5907L198.401 17.3728C198.204 17.1753 197.884 17.1753 197.686 17.3728C197.489 17.5703 197.489 17.8904 197.686 18.0879L200.546 20.9482L197.686 23.8086C197.489 24.0061 197.489 24.3262 197.686 24.5237C197.884 24.7212 198.204 24.7212 198.401 24.5237L201.619 21.3058ZM189.262 21.4539L201.262 21.4539L201.262 20.4426L189.262 20.4426L189.262 21.4539Z" fill="black"/>
<defs>
<linearGradient id="paint0_linear_625_1435" x1="60.1198" y1="-39.0497" x2="246.549" y2="11.0707" gradientUnits="userSpaceOnUse">
<stop stop-color="#CAA648"/>
<stop offset="0.0994764" stop-color="#CAA648"/>
<stop offset="0.24" stop-color="#D5B147"/>
<stop offset="0.44" stop-color="#E4C267"/>
<stop offset="0.74" stop-color="#E2C065"/>
<stop offset="0.85" stop-color="#DBB95E"/>
<stop offset="0.92" stop-color="#D0AE52"/>
<stop offset="0.98" stop-color="#C09F41"/>
<stop offset="1" stop-color="#BB9A3C"/>
</linearGradient>
</defs>
</svg>
